<svg xmlns="http://www.w3.org/2000/svg" xmlns:xlink="http://www.w3.org/1999/xlink" id="Calque_1" width="78" height="28" x="0" y="0" enable-background="new 0 0 78.5 28.5" version="1.1" viewBox="0 0 78.5 28.5" xml:space="preserve"><linearGradient id="SVGID_1_" x1="39.25" x2="39.25" y1="0" y2="28.5" gradientUnits="userSpaceOnUse"><stop offset="0" style="stop-color:#0090ff"/><stop offset="1" style="stop-color:#0079d7"/></linearGradient><path fill="url(#SVGID_1_)" fill-rule="evenodd" d="M3,0h72.5c1.7,0,3,1.3,3,3v22.5c0,1.7-1.3,3-3,3H3	c-1.7,0-3-1.3-3-3V3C0,1.3,1.3,0,3,0z" clip-rule="evenodd"/><polygon fill="#FFF" points="65.6 14.2 59.4 8 58.4 9 63.6 14.2 58.4 19.5 59.4 20.5 64.6 15.2 64.6 15.2"/><text fill="#FFF" font-family="DejaVu Sans,Verdana,Geneva,sans-serif" font-size="13.244" transform="matrix(1 0 0 1 12.375 19.1514)">Demo</text></svg>